Normalized EMG Linear Envelopes
nRows=119
nColumns=4

endheader
time	 med_gas_r	  soleus_r	 tib_ant_r	
2.71976	  0.003137	  0.005574	  0.001628	
2.79133	  0.003163	  0.005421	  0.001635	
2.8629	  0.003194	  0.005305	  0.001634	
2.93448	  0.003254	  0.005317	  0.001618	
3.00605	  0.003368	  0.005477	  0.001608	
3.07762	  0.003531	  0.005687	  0.001619	
3.14919	  0.003648	  0.005774	  0.001657	
3.22077	  0.003672	  0.005831	  0.001707	
3.29234	  0.003596	  0.005863	  0.001737	
3.36391	  0.003469	  0.005779	  0.001712	
3.43548	  0.003312	  0.005694	  0.001661	
3.50706	  0.003159	  0.005856	  0.001623	
3.57863	  0.003104	  0.006180	  0.001619	
3.6502	  0.003143	  0.006294	  0.001638	
3.72177	  0.003175	  0.006172	  0.001655	
3.79335	  0.003151	  0.006015	  0.001663	
3.86492	  0.003141	  0.006172	  0.001641	
3.93649	  0.003120	  0.006735	  0.001597	
4.00806	  0.003136	  0.007478	  0.001575	
4.07964	  0.003207	  0.007809	  0.001591	
4.15121	  0.003312	  0.007906	  0.001631	
4.22278	  0.003352	  0.007342	  0.001680	
4.29435	  0.003263	  0.006433	  0.001715	
4.36593	  0.003138	  0.005851	  0.001736	
4.4375	  0.002974	  0.005617	  0.001741	
4.50907	  0.002781	  0.005563	  0.001713	
4.58065	  0.002786	  0.005587	  0.001727	
4.65222	  0.003162	  0.005665	  0.001772	
4.72379	  0.004083	  0.005870	  0.001796	
4.79536	  0.005895	  0.006187	  0.001793	
4.86694	  0.008402	  0.006370	  0.001735	
4.93851	  0.009769	  0.005734	  0.001600	
5.01008	  0.006422	  0.003343	  0.001421	
5.08165	 -0.001369	 -0.001618	  0.001133	
5.15323	 -0.011271	 -0.008536	  0.000738	
5.2248	 -0.017759	 -0.012441	  0.000582	
5.29637	 -0.006487	 -0.000050	  0.001623	
5.36794	  0.048736	  0.051189	  0.005413	
5.43952	  0.175779	  0.162970	  0.013233	
5.51109	  0.366677	  0.321837	  0.023583	
5.58266	  0.548471	  0.448290	  0.030200	
5.65423	  0.671992	  0.505467	  0.030763	
5.72581	  0.710710	  0.514607	  0.028587	
5.79738	  0.684399	  0.508150	  0.027300	
5.86895	  0.653328	  0.516876	  0.027916	
5.94052	  0.658007	  0.555404	  0.030480	
6.0121	  0.711179	  0.615752	  0.034937	
6.08367	  0.783998	  0.685953	  0.039681	
6.15524	  0.844008	  0.780582	  0.042820	
6.22681	  0.875936	  0.896284	  0.044896	
6.29839	  0.885446	  0.983412	  0.047617	
6.36996	  0.891532	  0.993984	  0.048512	
6.44153	  0.887596	  0.946703	  0.044876	
6.5131	  0.868181	  0.892866	  0.040031	
6.58468	  0.857050	  0.840941	  0.037543	
6.65625	  0.863148	  0.817430	  0.038091	
6.72782	  0.896333	  0.830044	  0.040953	
6.7994	  0.952206	  0.845452	  0.045031	
6.87097	  0.994215	  0.844663	  0.047965	
6.94254	  0.992347	  0.829599	  0.048758	
7.01411	  0.951496	  0.804793	  0.048663	
7.08569	  0.913270	  0.804410	  0.049670	
7.15726	  0.885130	  0.820437	  0.049662	
7.22883	  0.863238	  0.835604	  0.048227	
7.3004	  0.846476	  0.848712	  0.046611	
7.37198	  0.829431	  0.846953	  0.045131	
7.44355	  0.806303	  0.834135	  0.043473	
7.51512	  0.791308	  0.841341	  0.042843	
7.58669	  0.794726	  0.853188	  0.042801	
7.65827	  0.801556	  0.839030	  0.042140	
7.72984	  0.789138	  0.777662	  0.039692	
7.80141	  0.762554	  0.709481	  0.036762	
7.87298	  0.766305	  0.681035	  0.035175	
7.94456	  0.785857	  0.692392	  0.035568	
8.01613	  0.806737	  0.701581	  0.036913	
8.0877	  0.836142	  0.704283	  0.038467	
8.15927	  0.858901	  0.709437	  0.039973	
8.23085	  0.865403	  0.725147	  0.042138	
8.30242	  0.862724	  0.757264	  0.043813	
8.37399	  0.848954	  0.776314	  0.045052	
8.44556	  0.861396	  0.765692	  0.047020	
8.51714	  0.908785	  0.754133	  0.049430	
8.58871	  0.949350	  0.759350	  0.050279	
8.66028	  0.957020	  0.761378	  0.049886	
8.73185	  0.922277	  0.776430	  0.049468	
8.80343	  0.869614	  0.791537	  0.049158	
8.875	  0.835462	  0.777654	  0.047376	
8.94657	  0.832315	  0.739330	  0.043026	
9.01815	  0.839823	  0.696922	  0.038621	
9.08972	  0.826751	  0.700596	  0.036284	
9.16129	  0.814487	  0.735565	  0.037461	
9.23286	  0.808101	  0.758054	  0.039825	
9.30444	  0.792851	  0.762032	  0.040930	
9.37601	  0.766963	  0.742776	  0.040820	
9.44758	  0.748267	  0.709885	  0.040517	
9.51915	  0.736998	  0.684827	  0.039166	
9.59073	  0.726557	  0.672451	  0.037128	
9.6623	  0.707993	  0.647474	  0.035158	
9.73387	  0.684402	  0.622119	  0.034040	
9.80544	  0.671577	  0.619997	  0.033385	
9.87702	  0.663247	  0.616975	  0.032379	
9.94859	  0.659855	  0.610784	  0.030452	
10.0202	  0.673672	  0.601755	  0.028891	
10.0917	  0.685890	  0.578946	  0.028356	
10.1633	  0.648631	  0.544335	  0.027291	
10.2349	  0.542466	  0.486288	  0.025154	
10.3065	  0.388127	  0.403223	  0.021283	
10.378	  0.224578	  0.281631	  0.016167	
10.4496	  0.100914	  0.148339	  0.010686	
10.5212	  0.033906	  0.053461	  0.005827	
10.5927	  0.008799	  0.008398	  0.002939	
10.6643	  0.002983	 -0.004269	  0.001743	
10.7359	  0.003544	 -0.003256	  0.001481	
10.8075	  0.005771	  0.001090	  0.001565	
10.879	  0.007507	  0.004556	  0.001704	
10.9506	  0.007870	  0.006390	  0.001801	
11.0222	  0.006975	  0.006912	  0.001829	
11.0937	  0.005838	  0.006676	  0.001783	
11.1653	  0.005106	  0.006379	  0.001693	
